<svg>

<symbol id="arrow-up" width="41" height="40" viewBox="0 0 41 40" fill="none" xmlns="http://www.w3.org/2000/svg">
  <path fill-rule="evenodd" clip-rule="evenodd" d="M2.75 20C2.75 24.6413 4.59374 29.0925 7.87563 32.3744C11.1575 35.6563 15.6087 37.5 20.25 37.5C24.8913 37.5 29.3425 35.6563 32.6244 32.3744C35.9063 29.0925 37.75 24.6413 37.75 20C37.75 15.3587 35.9063 10.9075 32.6244 7.62563C29.3425 4.34374 24.8913 2.5 20.25 2.5C15.6087 2.5 11.1575 4.34374 7.87563 7.62563C4.59374 10.9075 2.75 15.3587 2.75 20ZM40.25 20C40.25 25.3043 38.1429 30.3914 34.3921 34.1421C30.6414 37.8929 25.5543 40 20.25 40C14.9457 40 9.85859 37.8929 6.10786 34.1421C2.35714 30.3914 0.25 25.3043 0.25 20C0.25 14.6957 2.35714 9.60859 6.10786 5.85786C9.85859 2.10714 14.9457 0 20.25 0C25.5543 0 30.6414 2.10714 34.3921 5.85786C38.1429 9.60859 40.25 14.6957 40.25 20ZM21.5 28.75C21.5 29.0815 21.3683 29.3995 21.1339 29.6339C20.8995 29.8683 20.5815 30 20.25 30C19.9185 30 19.6005 29.8683 19.3661 29.6339C19.1317 29.3995 19 29.0815 19 28.75V14.2675L13.635 19.635C13.4003 19.8697 13.0819 20.0016 12.75 20.0016C12.4181 20.0016 12.0997 19.8697 11.865 19.635C11.6303 19.4003 11.4984 19.0819 11.4984 18.75C11.4984 18.4181 11.6303 18.0997 11.865 17.865L19.365 10.365C19.4811 10.2486 19.6191 10.1562 19.7709 10.0932C19.9228 10.0302 20.0856 9.99777 20.25 9.99777C20.4144 9.99777 20.5772 10.0302 20.7291 10.0932C20.8809 10.1562 21.0189 10.2486 21.135 10.365L28.635 17.865C28.8697 18.0997 29.0016 18.4181 29.0016 18.75C29.0016 19.0819 28.8697 19.4003 28.635 19.635C28.4003 19.8697 28.0819 20.0016 27.75 20.0016C27.4181 20.0016 27.0997 19.8697 26.865 19.635L21.5 14.2675V28.75Z" fill="white"/>
</symbol>

<symbol id="blue-line" width="101" height="9" viewBox="0 0 101 9" fill="none" xmlns="http://www.w3.org/2000/svg">
  <path d="M2 7.5L7.28063 2.60503C8.85183 1.14858 11.2916 1.18867 12.8141 2.69595L16.3676 6.21396C17.9264 7.75716 20.4372 7.75716 21.996 6.21396L25.4585 2.78604C27.0173 1.24284 29.5281 1.24284 31.0869 2.78604L34.5495 6.21396C36.1082 7.75716 38.619 7.75716 40.1778 6.21396L43.6404 2.78604C45.1991 1.24284 47.7099 1.24284 49.2687 2.78604L52.7313 6.21396C54.2901 7.75716 56.8008 7.75716 58.3596 6.21396L61.8222 2.78604C63.381 1.24284 65.8918 1.24284 67.4505 2.78604L70.9131 6.21396C72.4719 7.75715 74.9827 7.75716 76.5414 6.21396L80.004 2.78604C81.5628 1.24284 84.0736 1.24284 85.6324 2.78604L89.0977 6.21674C90.6554 7.75884 93.164 7.7601 94.7232 6.21956L99.5 1.5" stroke="#2F70D9" stroke-width="3" stroke-linecap="round"/>
</symbol>

<symbol id="burger-closed" width="20" height="20" viewBox="0 0 20 20" fill="none" xmlns="http://www.w3.org/2000/svg">
  <path d="M0.833403 8.33236C0.612371 8.33236 0.400392 8.24456 0.244098 8.08826C0.0878048 7.93197 0 7.71999 0 7.49896V0.833403C0 0.612371 0.0878048 0.400392 0.244098 0.244098C0.400392 0.0878048 0.612371 0 0.833403 0H7.50063C7.72166 0 7.93364 0.0878048 8.08993 0.244098C8.24622 0.400392 8.33403 0.612371 8.33403 0.833403V7.49896C8.33403 7.71999 8.24622 7.93197 8.08993 8.08826C7.93364 8.24456 7.72166 8.33236 7.50063 8.33236H0.833403ZM12.501 8.33236C12.28 8.33236 12.068 8.24456 11.9117 8.08826C11.7554 7.93197 11.6676 7.71999 11.6676 7.49896V0.833403C11.6676 0.612371 11.7554 0.400392 11.9117 0.244098C12.068 0.0878048 12.28 0 12.501 0H19.1666C19.3876 0 19.5996 0.0878048 19.7559 0.244098C19.9122 0.400392 20 0.612371 20 0.833403V7.49896C20 7.71999 19.9122 7.93197 19.7559 8.08826C19.5996 8.24456 19.3876 8.33236 19.1666 8.33236H12.501ZM0.833403 20C0.612371 20 0.400392 19.9122 0.244098 19.7559C0.0878048 19.5996 0 19.3876 0 19.1666V12.4994C0 12.2783 0.0878048 12.0664 0.244098 11.9101C0.400392 11.7538 0.612371 11.666 0.833403 11.666H7.50063C7.72166 11.666 7.93364 11.7538 8.08993 11.9101C8.24622 12.0664 8.33403 12.2783 8.33403 12.4994V19.1666C8.33403 19.3876 8.24622 19.5996 8.08993 19.7559C7.93364 19.9122 7.72166 20 7.50063 20H0.833403ZM12.501 20C12.28 20 12.068 19.9122 11.9117 19.7559C11.7554 19.5996 11.6676 19.3876 11.6676 19.1666V12.4994C11.6676 12.2783 11.7554 12.0664 11.9117 11.9101C12.068 11.7538 12.28 11.666 12.501 11.666H19.1666C19.3876 11.666 19.5996 11.7538 19.7559 11.9101C19.9122 12.0664 20 12.2783 20 12.4994V19.1666C20 19.3876 19.9122 19.5996 19.7559 19.7559C19.5996 19.9122 19.3876 20 19.1666 20H12.501Z" fill="#2F70D9"/>
</symbol>

<symbol id="burger-opened" width="20" height="20" viewBox="0 0 20 20" fill="none" xmlns="http://www.w3.org/2000/svg">
  <path d="M1.75 0L0 1.75L3.5 5.25L1.25 7.5H7.5V1.25L5.25 3.5L1.75 0ZM16.5 5.25L20 1.75L18.25 0L14.75 3.5L12.5 1.25V7.5H18.75L16.5 5.25V5.25ZM3.5 14.75L0 18.25L1.75 20L5.25 16.5L7.5 18.75V12.5H1.25L3.5 14.75ZM18.75 12.5H12.5V18.75L14.75 16.5L18.25 20L20 18.25L16.5 14.75L18.75 12.5Z" fill="#D95845"/>
</symbol>

<symbol id="grey-line" width="136" height="14" viewBox="0 0 136 14" fill="none" xmlns="http://www.w3.org/2000/svg">
  <path d="M3 10.3333L11.2605 3.95231C12.7388 2.81042 14.8105 2.84365 16.2513 4.03235L23.3636 9.89994C24.8416 11.1193 26.9766 11.1193 28.4546 9.89994L35.4848 4.10006C36.9628 2.88072 39.0978 2.88072 40.5758 4.10006L47.606 9.89994C49.084 11.1193 51.2191 11.1193 52.697 9.89994L59.7272 4.10006C61.2052 2.88072 63.3403 2.88072 64.8183 4.10006L71.8484 9.89994C73.3264 11.1193 75.4615 11.1193 76.9395 9.89994L83.9696 4.10006C85.4476 2.88072 87.5827 2.88072 89.0607 4.10006L96.0908 9.89994C97.5688 11.1193 99.7039 11.1193 101.182 9.89994L108.212 4.10006C109.69 2.88072 111.825 2.88072 113.303 4.10006L120.336 9.90203C121.813 11.1204 123.946 11.1215 125.424 9.90453L133 3.66667" stroke="#686868" stroke-width="5" stroke-linecap="round"/>
</symbol>

<symbol id="promo-line" width="41" height="4" viewBox="0 0 41 4" fill="none" xmlns="http://www.w3.org/2000/svg">
  <path d="M1 3L2.40158 1.91732C3.47473 1.08834 4.99351 1.12465 6.03953 1.98761V1.98761C7.0952 2.85854 8.63523 2.87093 9.69091 2V2C10.7466 1.12907 12.2716 1.12907 13.3273 2V2C14.3829 2.87093 15.908 2.87093 16.9636 2V2C18.0193 1.12907 19.5443 1.12907 20.6 2V2C21.6557 2.87093 23.1807 2.87093 24.2364 2V2C25.292 1.12907 26.8171 1.12907 27.8727 2V2C28.9284 2.87093 30.4534 2.87093 31.5091 2V2C32.5648 1.12907 34.0902 1.12944 35.1459 2.00037V2.00037C36.2013 2.87107 37.7261 2.87219 38.7824 2.00253L40 1" stroke="#2F70D9" stroke-width="2" stroke-linecap="round"/>
</svg>

<symbol id="viber" width="30" height="30" viewBox="0 0 30 30" fill="none" xmlns="http://www.w3.org/2000/svg">
  <path d="M14.2104 0.00436588C11.6738 0.033432 6.22031 0.429106 3.17006 3.08537C0.901138 5.21938 0.108942 8.37446 0.0160912 12.2759C-0.0609553 16.1632 -0.153806 23.4635 7.25945 25.4513V28.4788C7.25945 28.4788 7.21302 29.6902 8.05658 29.9387C9.09572 30.2509 9.6874 29.3189 10.6752 28.3175L12.5174 26.3401C17.5896 26.7405 21.4745 25.8179 21.922 25.681C22.9512 25.3687 28.7485 24.6655 29.6958 17.3643C30.6678 9.82402 29.2226 5.07312 26.6139 2.9241H26.5981C25.8109 2.23589 22.647 0.0474962 15.5785 0.0231182C15.5785 0.0231182 15.054 -0.010636 14.2104 0.00342826V0.00436588ZM14.2973 2.12432C15.0174 2.11963 15.455 2.14869 15.455 2.14869C21.438 2.16369 24.2936 3.87297 24.9673 4.44866C27.1641 6.23576 28.2961 10.5188 27.4674 16.8139C26.6801 22.9178 21.9783 23.3041 21.1081 23.5676C20.7376 23.6801 17.316 24.4808 13.0053 24.2174C13.0053 24.2174 9.79507 27.8947 8.79149 28.8417C8.63246 29.0076 8.44675 29.0564 8.32822 29.032C8.15832 28.9926 8.10696 28.7929 8.11684 28.5191L8.14746 23.4945C1.86027 21.8442 2.23068 15.6175 2.29785 12.365C2.3749 9.11236 3.01794 6.45141 4.93225 4.64931C7.50936 2.43748 12.14 2.13932 14.2954 2.12432H14.2973ZM14.7715 5.37597C14.7197 5.37547 14.6684 5.3847 14.6204 5.40313C14.5725 5.42155 14.5288 5.44881 14.492 5.48333C14.4552 5.51784 14.4259 5.55893 14.4059 5.60423C14.3859 5.64953 14.3755 5.69814 14.3754 5.74726C14.3754 5.95729 14.5552 6.12325 14.7715 6.12325C15.7509 6.10557 16.7242 6.27211 17.6355 6.61327C18.5467 6.95443 19.3778 7.46345 20.0808 8.11099C21.516 9.43397 22.2154 11.2117 22.242 13.536C22.242 13.7414 22.4169 13.912 22.6381 13.912V13.897C22.7424 13.8973 22.8426 13.8584 22.9168 13.7888C22.991 13.7193 23.0332 13.6247 23.0342 13.5257C23.0822 12.4317 22.8953 11.3398 22.4848 10.3164C22.0744 9.29306 21.4491 8.35961 20.6468 7.5728C19.0831 6.12231 17.1016 5.37503 14.7715 5.37503V5.37597ZM9.56492 6.23576C9.28532 6.19698 9.00017 6.25026 8.75692 6.38671H8.73617C8.17142 6.70095 7.66267 7.0981 7.22883 7.56342C6.86829 7.9591 6.67271 8.35946 6.62135 8.74482C6.59072 8.97453 6.61147 9.20425 6.68358 9.42365L6.70926 9.43865C7.11523 10.5713 7.64567 11.6608 8.29365 12.6866C9.12834 14.1276 10.1556 15.4604 11.3498 16.6517L11.3854 16.7005L11.4417 16.7399L11.4773 16.7792L11.5187 16.813C12.7784 17.9499 14.1858 18.9296 15.7069 19.728C17.4454 20.6263 18.5003 21.051 19.1335 21.2273V21.2367C19.3192 21.2901 19.4881 21.3145 19.658 21.3145C20.1976 21.277 20.7085 21.069 21.109 20.7238C21.597 20.3119 22.0108 19.827 22.3339 19.2883V19.2789C22.6371 18.737 22.5344 18.2241 22.0968 17.8772C21.2205 17.1501 20.2728 16.5042 19.2668 15.9485C18.5932 15.6016 17.9087 15.8116 17.6311 16.1632L17.0394 16.8711C16.7362 17.2227 16.185 17.174 16.185 17.174L16.1692 17.1834C12.059 16.1867 10.9626 12.2365 10.9626 12.2365C10.9626 12.2365 10.9113 11.6992 11.2915 11.4255L12.0324 10.8591C12.387 10.5854 12.6339 9.93653 12.2536 9.29614C11.6722 8.33991 10.9933 7.44017 10.2267 6.60987C10.0591 6.41412 9.82401 6.28094 9.56294 6.23388L9.56492 6.23576ZM15.455 7.34965C14.9305 7.34965 14.9305 8.10161 15.46 8.10161C16.1122 8.11166 16.7559 8.2436 17.3544 8.48991C17.9528 8.73622 18.4943 9.09206 18.9478 9.5371C19.3615 9.97029 19.6794 10.4779 19.8827 11.0298C20.0859 11.5818 20.1704 12.1668 20.1311 12.7503C20.133 12.8491 20.1754 12.9432 20.2495 13.0126C20.3235 13.082 20.4232 13.1211 20.5272 13.1216L20.5431 13.1413C20.6479 13.1406 20.7482 13.1007 20.8223 13.0304C20.8964 12.96 20.9384 12.8648 20.9391 12.7653C20.9747 11.2754 20.4867 10.0256 19.5296 9.02423C18.5675 8.02285 17.2251 7.46122 15.5113 7.34965H15.455ZM16.104 9.37115C15.5637 9.35614 15.5429 10.1231 16.0783 10.1381C17.3802 10.2019 18.0124 10.8263 18.0953 12.1109C18.0972 12.2084 18.1391 12.3013 18.2122 12.3698C18.2853 12.4384 18.3838 12.477 18.4865 12.4775H18.5023C18.5551 12.4753 18.607 12.4632 18.6548 12.4418C18.7026 12.4205 18.7455 12.3903 18.7809 12.353C18.8163 12.3157 18.8435 12.2721 18.861 12.2248C18.8785 12.1774 18.8858 12.1272 18.8826 12.0771C18.7898 10.4025 17.8277 9.45928 16.1198 9.37208H16.104V9.37115Z" fill="white"/>
</symbol>

<symbol id="whatsapp" width="20" height="20" viewBox="0 0 20 20" fill="none" xmlns="http://www.w3.org/2000/svg">
  <mask id="mask0_50_2734" style="mask-type:luminance" maskUnits="userSpaceOnUse" x="0" y="0" width="20" height="20">
  <path d="M0 0H20V20H0V0Z" fill="white"/>
  </mask>
  <g mask="url(#mask0_50_2734)">
  <path fill-rule="evenodd" clip-rule="evenodd" d="M14.5125 11.985C14.2642 11.8608 13.0467 11.2625 12.82 11.1792C12.5933 11.0967 12.4283 11.0558 12.2625 11.3042C12.0975 11.5508 11.6233 12.1092 11.4792 12.2742C11.3342 12.44 11.19 12.46 10.9425 12.3367C10.695 12.2117 9.89667 11.9508 8.95083 11.1075C8.215 10.4508 7.7175 9.64 7.57333 9.39167C7.42917 9.14417 7.5575 9.01 7.68167 8.88667C7.79333 8.77584 7.92917 8.5975 8.05333 8.45334C8.1775 8.30834 8.21833 8.205 8.30083 8.03917C8.38417 7.87417 8.3425 7.73 8.28 7.60584C8.21833 7.48167 7.72333 6.2625 7.51667 5.76667C7.31583 5.28417 7.11167 5.35 6.96 5.34167C6.815 5.335 6.65 5.33334 6.485 5.33334C6.32 5.33334 6.05167 5.395 5.825 5.64334C5.5975 5.89084 4.95833 6.49 4.95833 7.70917C4.95833 8.9275 5.845 10.105 5.96917 10.2708C6.09333 10.4358 7.715 12.9375 10.1992 14.01C10.7908 14.265 11.2517 14.4175 11.6108 14.5308C12.2042 14.72 12.7442 14.6933 13.1708 14.6292C13.6458 14.5583 14.6358 14.03 14.8425 13.4517C15.0483 12.8733 15.0483 12.3775 14.9867 12.2742C14.925 12.1708 14.76 12.1092 14.5117 11.985H14.5125ZM9.99417 18.1542H9.99083C8.51536 18.1544 7.06698 17.7578 5.7975 17.0058L5.4975 16.8275L2.37917 17.6458L3.21167 14.6058L3.01583 14.2942C2.19095 12.9811 1.75441 11.4615 1.75667 9.91084C1.75833 5.36917 5.45333 1.67417 9.9975 1.67417C12.1975 1.67417 14.2658 2.5325 15.8208 4.08917C16.5878 4.85299 17.1957 5.76131 17.6094 6.76159C18.0231 7.76186 18.2343 8.83424 18.2308 9.91667C18.2292 14.4583 14.5342 18.1542 9.99417 18.1542ZM17.0042 2.90667C16.086 1.98244 14.9935 1.24962 13.7901 0.750671C12.5866 0.251723 11.2961 -0.00342739 9.99333 3.63038e-06C4.53167 3.63038e-06 0.085 4.44584 0.0833333 9.91C0.0808025 11.649 0.536979 13.3578 1.40583 14.8642L0 20L5.25333 18.6217C6.70656 19.4134 8.33508 19.8283 9.99 19.8283H9.99417C15.4558 19.8283 19.9025 15.3825 19.9042 9.9175C19.9082 8.61523 19.654 7.32509 19.1562 6.1217C18.6584 4.91831 17.927 3.82556 17.0042 2.90667Z" fill="white"/>
  </g>
</symbol>

<symbol id="logo" width="180" height="45" viewBox="0 0 180 45" fill="none" xmlns="http://www.w3.org/2000/svg">
  <path d="M23.8839 18.4886C23.8839 16.6264 23.562 15.2382 22.9184 14.324C22.2747 13.376 21.4616 12.7326 20.4791 12.394C19.5306 12.0555 18.5989 11.9031 17.6842 11.937L14.3811 11.9877C13.6697 11.9877 13.0599 12.0893 12.5517 12.2925C12.0436 12.4618 11.654 12.8681 11.383 13.5114C11.1119 14.1208 10.9764 15.0858 10.9764 16.4063V23.5166L14.0254 23.415C17.3455 23.3134 20.0218 23.5335 22.0545 24.0752C24.121 24.6169 25.6963 25.3957 26.7804 26.4115C27.8984 27.3934 28.6437 28.5276 29.0164 29.8143C29.4229 31.1009 29.6262 32.4552 29.6262 33.8773C29.6262 36.112 29.0842 38.0081 28 39.5655C26.9498 41.0892 25.493 42.2403 23.6298 43.0191C21.7665 43.7979 19.6491 44.1872 17.2777 44.1872H0V40.8352C0.779193 40.8014 1.42287 40.6998 1.93104 40.5305C2.47308 40.3612 2.87961 39.9718 3.15064 39.3624C3.45554 38.7529 3.60799 37.771 3.60799 36.4167V16.9649C3.60799 16.0508 3.62493 15.1704 3.65881 14.324C3.72656 13.4775 3.77738 12.8342 3.81126 12.394C3.26921 12.4279 2.59165 12.4618 1.77859 12.4956C0.965518 12.4956 0.37266 12.5126 0 12.5464V8.63574H26.9329L27.187 18.4886H23.8839ZM10.9764 36.112C10.9764 37.0261 10.9594 37.8895 10.9256 38.7021C10.8918 39.5147 10.8409 40.1412 10.7732 40.5813C11.383 40.5813 11.9589 40.5813 12.5009 40.5813C13.0429 40.5813 13.585 40.5813 14.1271 40.5813C14.6691 40.5475 15.1942 40.5305 15.7024 40.5305C17.7689 40.4289 19.2765 39.7517 20.2251 38.499C21.1736 37.2463 21.6479 35.6379 21.6479 33.6741C21.6479 31.9135 21.3261 30.5591 20.6824 29.6111C20.0388 28.6631 19.2087 28.0029 18.1924 27.6304C17.2099 27.2579 16.1767 27.0717 15.0926 27.0717C14.2457 27.0717 13.5173 27.0717 12.9075 27.0717C12.2977 27.0379 11.654 27.0548 10.9764 27.1225V36.112ZM47.2663 44.1872C47.1986 43.7132 47.1478 43.3238 47.1138 43.0191C47.1138 42.6805 47.097 42.2911 47.063 41.851C45.9112 43.0021 44.6916 43.8147 43.4042 44.2888C42.1169 44.7629 40.8126 44.9998 39.4913 44.9998C37.3232 44.9998 35.6292 44.3566 34.4096 43.0699C33.19 41.7832 32.5802 40.175 32.5802 38.245C32.5802 36.6198 32.9868 35.2316 33.7998 34.0804C34.6469 32.9293 35.7479 31.9981 37.1029 31.2871C38.492 30.5423 40.0165 29.9836 41.6764 29.6111C43.3704 29.2048 45.0643 28.9678 46.7581 28.9001V26.2591C46.7581 25.3788 46.6396 24.5831 46.4024 23.8721C46.1991 23.1611 45.8265 22.6024 45.2844 22.1961C44.7763 21.7898 44.048 21.6036 43.0993 21.6374C42.4557 21.6713 41.8289 21.8068 41.2191 22.0437C40.6093 22.2807 40.0842 22.6194 39.6438 23.0595C39.9148 23.3642 40.0842 23.7028 40.1519 24.0752C40.2197 24.4138 40.2536 24.7185 40.2536 24.9894C40.2536 25.6666 39.9826 26.3777 39.4405 27.1225C38.8985 27.8335 38.0346 28.1721 36.8488 28.1383C35.8325 28.1044 35.0534 27.7489 34.5113 27.0717C33.9693 26.3945 33.6982 25.5989 33.6982 24.6847C33.6982 23.3304 34.1725 22.1623 35.1211 21.1803C36.1036 20.1646 37.4078 19.3858 39.034 18.8441C40.6601 18.2685 42.4557 17.9807 44.4205 17.9807C47.4019 17.9807 49.7055 18.7595 51.3316 20.3169C52.9917 21.8406 53.8216 24.2954 53.8216 27.6812C53.8216 28.8323 53.8216 29.8143 53.8216 30.6269C53.8216 31.4395 53.8048 32.2521 53.7708 33.0647C53.7708 33.8773 53.7708 34.8592 53.7708 36.0104C53.7708 36.4844 53.754 37.1615 53.72 38.0419C53.6862 38.8883 53.6353 39.7009 53.5676 40.4797C54.1435 40.412 54.7533 40.3781 55.397 40.3781C56.0407 40.3443 56.5319 40.3273 56.8706 40.3273V44.1872H47.2663ZM46.7073 32.506C45.7588 32.6076 44.861 32.7769 44.014 33.0139C43.1671 33.2509 42.4218 33.5726 41.7781 33.9789C41.1683 34.3852 40.6771 34.8761 40.3044 35.4517C39.9656 36.0273 39.7962 36.6706 39.7962 37.3817C39.8302 38.3297 40.1351 39.0069 40.7109 39.4132C41.2869 39.8195 41.9475 40.0226 42.6928 40.0226C43.472 40.0226 44.2004 39.8533 44.8779 39.5147C45.5555 39.1762 46.1653 38.736 46.7073 38.1943C46.7073 37.8557 46.7073 37.534 46.7073 37.2293C46.7073 36.8907 46.7073 36.5521 46.7073 36.2135C46.7073 35.6041 46.7073 34.9946 46.7073 34.3852C46.7073 33.7419 46.7073 33.1155 46.7073 32.506ZM73.0006 22.0945C72.0859 22.0945 71.4084 22.2807 70.9679 22.6532C70.5614 23.0257 70.2904 23.5504 70.1549 24.2276C70.0532 24.9048 70.0024 25.7005 70.0024 26.6146V36.0104C70.0024 36.4844 69.9855 37.1615 69.9516 38.0419C69.9177 38.8883 69.8669 39.7009 69.7991 40.4797C70.3412 40.412 70.9341 40.3781 71.5777 40.3781C72.2553 40.3443 72.7635 40.3273 73.1022 40.3273V44.1872H59.7882V40.886C60.7369 40.886 61.4144 40.6998 61.8209 40.3273C62.2274 39.9549 62.4815 39.4301 62.5832 38.7529C62.7187 38.0419 62.7864 37.2463 62.7864 36.3659V26.9701C62.7864 26.4961 62.8034 25.819 62.8372 24.9386C62.8712 24.0583 62.922 23.2457 62.9897 22.5008C62.4477 22.5346 61.8549 22.5686 61.2111 22.6024C60.5675 22.6362 60.0593 22.6532 59.6866 22.6532V18.7933H73.0006V22.0945ZM80.5215 23.0595L82.9607 25.5989L68.3763 39.6163L65.8862 37.0261L80.5215 23.0595ZM89.4652 22.0945C88.5505 22.0945 87.873 22.2807 87.4325 22.6532C87.026 23.0257 86.7551 23.5504 86.6195 24.2276C86.5178 24.9048 86.467 25.7005 86.467 26.6146V36.0104C86.467 36.4844 86.4502 37.1615 86.4162 38.0419C86.3824 38.8883 86.3316 39.7009 86.2638 40.4797C86.8059 40.412 87.3987 40.3781 88.0423 40.3781C88.7199 40.3443 89.2281 40.3273 89.5668 40.3273V44.1872H76.2529V40.886C77.2015 40.886 77.879 40.6998 78.2855 40.3273C78.6921 39.9549 78.9462 39.4301 79.0478 38.7529C79.1834 38.0419 79.2511 37.2463 79.2511 36.3659V26.9701C79.2511 26.4961 79.268 25.819 79.3019 24.9386C79.3358 24.0583 79.3866 23.2457 79.4543 22.5008C78.9123 22.5346 78.3195 22.5686 77.6757 22.6024C77.0321 22.6362 76.5239 22.6532 76.1512 22.6532V18.7933H89.4652V22.0945ZM92.423 44.1872V40.886C93.3715 40.886 94.0491 40.6998 94.4556 40.3273C94.896 39.9549 95.1671 39.4301 95.2687 38.7529C95.4042 38.0419 95.472 37.2463 95.472 36.3659V26.9701C95.472 26.4961 95.4889 25.819 95.5228 24.9386C95.5566 24.0583 95.6074 23.2457 95.6752 22.5008C95.1332 22.5346 94.5403 22.5686 93.8966 22.6024C93.253 22.6362 92.7448 22.6532 92.3721 22.6532V18.7933H105.687V22.0945C104.737 22.0945 104.043 22.2807 103.603 22.6532C103.197 23.0257 102.943 23.5504 102.841 24.2276C102.739 24.9048 102.688 25.7005 102.688 26.6146V29.0017H105.128L108.786 24.7863C109.227 24.3122 109.582 23.9059 109.854 23.5674C110.159 23.2288 110.463 22.9241 110.768 22.6532H108.075V18.7933H119.509V22.0437C118.323 22.1791 117.273 22.467 116.358 22.9071C115.443 23.3134 114.647 23.8043 113.97 24.38C113.325 24.9556 112.766 25.5143 112.293 26.056L109.041 29.6619C109.549 29.9328 110.04 30.3052 110.514 30.7792C111.022 31.2194 111.632 31.9135 112.344 32.8615L115.748 37.3309C115.952 37.5678 116.206 37.8895 116.511 38.2958C116.849 38.7021 117.222 39.1084 117.629 39.5147C118.035 39.8872 118.475 40.2088 118.95 40.4797C119.423 40.7506 119.915 40.886 120.423 40.886V44.1872H114.58C113.495 44.1872 112.547 43.8147 111.734 43.0699C110.921 42.2911 109.989 41.1907 108.939 39.7687C108.329 38.9561 107.685 38.0927 107.008 37.1785C106.364 36.2305 105.754 35.3501 105.178 34.5375C104.636 33.6911 104.196 33.0309 103.857 32.5568L102.688 32.6076V36.0104C102.688 36.4844 102.671 37.1615 102.638 38.0419C102.603 38.8883 102.552 39.7009 102.485 40.4797C103.027 40.412 103.619 40.3781 104.264 40.3781C104.907 40.3443 105.415 40.3273 105.788 40.3273V44.1872H92.423ZM137.337 44.1872C137.269 43.7132 137.218 43.3238 137.185 43.0191C137.185 42.6805 137.168 42.2911 137.134 41.851C135.982 43.0021 134.762 43.8147 133.475 44.2888C132.188 44.7629 130.884 44.9998 129.562 44.9998C127.394 44.9998 125.7 44.3566 124.481 43.0699C123.261 41.7832 122.651 40.175 122.651 38.245C122.651 36.6198 123.058 35.2316 123.871 34.0804C124.717 32.9293 125.818 31.9981 127.174 31.2871C128.562 30.5423 130.087 29.9836 131.747 29.6111C133.441 29.2048 135.135 28.9678 136.829 28.9001V26.2591C136.829 25.3788 136.71 24.5831 136.473 23.8721C136.27 23.1611 135.897 22.6024 135.355 22.1961C134.847 21.7898 134.119 21.6036 133.17 21.6374C132.526 21.6713 131.9 21.8068 131.29 22.0437C130.68 22.2807 130.155 22.6194 129.715 23.0595C129.985 23.3642 130.155 23.7028 130.223 24.0752C130.29 24.4138 130.325 24.7185 130.325 24.9894C130.325 25.6666 130.053 26.3777 129.512 27.1225C128.969 27.8335 128.105 28.1721 126.92 28.1383C125.904 28.1044 125.124 27.7489 124.582 27.0717C124.04 26.3945 123.769 25.5989 123.769 24.6847C123.769 23.3304 124.243 22.1623 125.192 21.1803C126.174 20.1646 127.479 19.3858 129.105 18.8441C130.731 18.2685 132.526 17.9807 134.492 17.9807C137.473 17.9807 139.777 18.7595 141.403 20.3169C143.062 21.8406 143.893 24.2954 143.893 27.6812C143.893 28.8323 143.893 29.8143 143.893 30.6269C143.893 31.4395 143.875 32.2521 143.842 33.0647C143.842 33.8773 143.842 34.8592 143.842 36.0104C143.842 36.4844 143.825 37.1615 143.791 38.0419C143.757 38.8883 143.706 39.7009 143.639 40.4797C144.214 40.412 144.824 40.3781 145.468 40.3781C146.111 40.3443 146.602 40.3273 146.942 40.3273V44.1872H137.337ZM136.778 32.506C135.829 32.6076 134.932 32.7769 134.085 33.0139C133.237 33.2509 132.492 33.5726 131.849 33.9789C131.239 34.3852 130.747 34.8761 130.375 35.4517C130.036 36.0273 129.867 36.6706 129.867 37.3817C129.901 38.3297 130.206 39.0069 130.782 39.4132C131.357 39.8195 132.018 40.0226 132.764 40.0226C133.542 40.0226 134.271 39.8533 134.949 39.5147C135.626 39.1762 136.236 38.736 136.778 38.1943C136.778 37.8557 136.778 37.534 136.778 37.2293C136.778 36.8907 136.778 36.5521 136.778 36.2135C136.778 35.6041 136.778 34.9946 136.778 34.3852C136.778 33.7419 136.778 33.1155 136.778 32.506ZM153.416 44.8983C151.858 44.8983 150.57 44.475 149.554 43.6286C148.537 42.7821 148.029 41.6817 148.029 40.3273C148.029 39.21 148.351 38.3636 148.995 37.788C149.639 37.1785 150.486 36.8738 151.536 36.8738C152.62 36.8738 153.382 37.1615 153.822 37.7372C154.297 38.3128 154.534 38.9391 154.534 39.6163C154.534 40.0564 154.483 40.3951 154.381 40.6321C154.28 40.8352 154.162 41.0214 154.026 41.1907C154.127 41.2923 154.297 41.3431 154.534 41.3431C155.448 41.3431 156.245 40.5813 156.922 39.0577C157.6 37.534 158.159 35.3501 158.599 32.506C159.04 29.6619 159.379 26.2422 159.615 22.2469L154.788 22.6532V18.7933H179.739V22.0945C178.791 22.0945 178.096 22.2807 177.655 22.6532C177.249 23.0257 176.978 23.5504 176.842 24.2276C176.741 24.9048 176.69 25.7005 176.69 26.6146V36.0104C176.69 36.4844 176.674 37.1615 176.639 38.0419C176.605 38.8883 176.555 39.7009 176.487 40.4797L179.79 40.3273V44.1872H166.425V40.886C167.374 40.886 168.051 40.6998 168.458 40.3273C168.899 39.9549 169.169 39.4301 169.271 38.7529C169.407 38.0419 169.474 37.2463 169.474 36.3659V26.9701C169.474 26.4961 169.491 25.8698 169.525 25.091C169.559 24.2784 169.61 23.5166 169.677 22.8055H165.866C165.053 22.8055 164.478 22.9409 164.138 23.2119C163.8 23.4828 163.596 24.0414 163.528 24.8878C163.325 28.2737 162.953 31.2194 162.41 33.7249C161.902 36.2305 161.225 38.3128 160.378 39.9718C159.565 41.6309 158.566 42.8667 157.379 43.6793C156.228 44.492 154.907 44.8983 153.416 44.8983Z" fill="#2F70D9"/>
  <path d="M56.4721 0.228149V3.39246H50.7353V14.7305H46.7951V0.228149H56.4721ZM72.124 7.45946C72.124 8.5771 71.9884 9.5955 71.7171 10.5147C71.4524 11.4272 71.0356 12.2142 70.4665 12.8755C69.8975 13.5368 69.1663 14.046 68.2731 14.4031C67.3798 14.7536 66.3111 14.9288 65.0673 14.9288C63.8498 14.9288 62.7944 14.7536 61.9011 14.4031C61.0145 14.046 60.2834 13.5401 59.7076 12.8854C59.132 12.2242 58.7052 11.4339 58.4273 10.5147C58.1494 9.5955 58.0104 8.5704 58.0104 7.43966C58.0104 5.93187 58.2586 4.62245 58.7548 3.5115C59.2577 2.3939 60.0319 1.53091 61.0773 0.92251C62.1227 0.3075 63.4594 0 65.0871 0C66.7413 0 68.0844 0.3075 69.1167 0.92251C70.1555 1.53752 70.9165 2.40382 71.3995 3.52141C71.8825 4.63901 72.124 5.95167 72.124 7.45946ZM62.1393 7.45946C62.1393 8.3324 62.2386 9.08294 62.4371 9.71119C62.6356 10.3394 62.9499 10.8221 63.3799 11.1595C63.81 11.4967 64.3725 11.6653 65.0673 11.6653C65.7884 11.6653 66.3608 11.4967 66.7843 11.1595C67.2144 10.8221 67.522 10.3394 67.7073 9.71119C67.8992 9.08294 67.9951 8.3324 67.9951 7.45946C67.9951 6.15005 67.7768 5.1152 67.3401 4.3547C66.9034 3.5942 66.1524 3.21391 65.0871 3.21391C64.3791 3.21391 63.8067 3.38585 63.3701 3.72971C62.94 4.07364 62.6256 4.56293 62.4271 5.19778C62.2352 5.83263 62.1393 6.58652 62.1393 7.45946ZM81.2055 3.23375C80.7424 3.23375 80.3288 3.33295 79.9649 3.53134C79.6009 3.7231 79.29 4.00416 79.0319 4.37451C78.7739 4.74485 78.5754 5.19778 78.4364 5.73349C78.3041 6.2625 78.2379 6.86433 78.2379 7.53879C78.2379 8.45145 78.3537 9.21855 78.5853 9.84009C78.8168 10.4617 79.1676 10.9313 79.6373 11.2487C80.1138 11.5662 80.7093 11.7248 81.4238 11.7248C82.0724 11.7248 82.6943 11.6355 83.2898 11.457C83.8919 11.2785 84.4973 11.0636 85.1061 10.8123V14.1254C84.4643 14.4097 83.8059 14.6148 83.131 14.7404C82.4627 14.8661 81.7514 14.9288 80.9971 14.9288C79.4223 14.9288 78.132 14.618 77.1263 13.9964C76.1271 13.3682 75.3894 12.4985 74.913 11.3876C74.4431 10.2766 74.2083 8.98706 74.2083 7.51899C74.2083 6.42126 74.3605 5.41606 74.6648 4.50341C74.9758 3.59085 75.4291 2.8006 76.0246 2.13269C76.6201 1.45816 77.3545 0.939046 78.228 0.575324C79.108 0.205 80.1138 0.0198375 81.2453 0.0198375C81.9466 0.0198375 82.6844 0.1025 83.4585 0.267825C84.2393 0.426536 85.0002 0.684447 85.7413 1.04155L84.5403 4.12646C84.011 3.87526 83.4751 3.66358 82.9325 3.49166C82.39 3.31973 81.8142 3.23375 81.2055 3.23375ZM94.3464 14.7305H90.426V3.43214H86.8827V0.228149H97.8797V3.43214H94.3464V14.7305ZM99.9545 0.228149H103.606V6.86433C103.606 7.16185 103.603 7.47602 103.597 7.80665C103.59 8.13067 103.58 8.45145 103.567 8.76888C103.553 9.0863 103.537 9.38717 103.518 9.67148C103.497 9.95589 103.474 10.2072 103.448 10.4254H103.527L109.502 0.228149H113.998V14.7305H110.335V8.45145C110.335 8.18024 110.339 7.87277 110.345 7.52894C110.359 7.18501 110.372 6.83122 110.385 6.46747C110.405 6.10383 110.425 5.7533 110.445 5.41606C110.472 5.07873 110.498 4.78447 110.524 4.53317H110.435L104.46 14.7305H99.9545V0.228149ZM129.581 14.7305H125.64V8.81844H121.085V14.7305H117.145V0.228149H121.085V5.60449H125.64V0.228149H129.581V14.7305ZM132.727 0.228149H136.38V6.86433C136.38 7.16185 136.376 7.47602 136.37 7.80665C136.363 8.13067 136.352 8.45145 136.339 8.76888C136.326 9.0863 136.31 9.38717 136.29 9.67148C136.27 9.95589 136.247 10.2072 136.22 10.4254H136.3L142.275 0.228149H146.771V14.7305H143.109V8.45145C143.109 8.18024 143.112 7.87277 143.118 7.52894C143.131 7.18501 143.145 6.83122 143.158 6.46747C143.178 6.10383 143.198 5.7533 143.218 5.41606C143.244 5.07873 143.271 4.78447 143.297 4.53317H143.208L137.233 14.7305H132.727V0.228149ZM164.875 11.5165V19.2439H161.053V14.7305H149.918V0.228149H153.858V11.5165H157.888V0.228149H161.828V11.5165H164.875ZM175.713 14.7305L174.999 12.0125H170.284L169.549 14.7305H165.242L169.976 0.168626H175.207L180 14.7305H175.713ZM174.185 8.79864L173.559 6.41791C173.492 6.16 173.397 5.79301 173.271 5.31683C173.146 4.83414 173.02 4.33814 172.894 3.82895C172.775 3.31311 172.682 2.88988 172.616 2.55923C172.556 2.88988 172.471 3.29988 172.358 3.78923C172.252 4.27202 172.14 4.75145 172.021 5.22754C171.908 5.70373 171.809 6.10048 171.723 6.41791L171.098 8.79864H174.185Z" fill="white"/>
</symbol>

<!-- <symbol id="room-1" 
 width="170.000000pt" height="110.000000pt" viewBox="0 0 170.000000 110.000000"
 preserveAspectRatio="xMidYMid meet" xmlns="http://www.w3.org/2000/svg">

<g transform="translate(0.000000,110.000000) scale(0.100000,-0.100000)"
fill="#000000" stroke="none">
<path d="M184 1071 c-29 -18 -54 -63 -54 -98 0 -30 34 -84 61 -98 65 -34 148
-5 169 61 16 47 0 105 -37 133 -33 27 -97 27 -139 2z"/>
<path d="M785 1071 c-40 -24 -71 -60 -84 -94 -6 -16 -11 -102 -11 -197 0 -109
-4 -171 -11 -175 -6 -4 -24 -25 -40 -47 l-29 -41 0 -248 c0 -287 -7 -269 104
-269 85 0 106 18 106 90 l0 50 330 0 330 0 0 -50 c0 -72 21 -90 106 -90 111 0
104 -18 104 269 l0 248 -29 41 c-16 22 -34 43 -40 47 -7 4 -11 66 -11 175 0
180 -5 208 -48 254 -51 54 -63 56 -419 56 -303 0 -330 -2 -358 -19z m703 -40
c65 -33 72 -57 72 -241 0 -144 -2 -161 -16 -156 -9 3 -40 6 -70 6 l-54 0 0 46
c0 62 -29 107 -80 128 -62 25 -330 22 -386 -3 -47 -22 -74 -68 -74 -129 l0
-40 -70 -4 -70 -3 0 158 c0 183 8 207 75 238 36 17 70 19 338 19 273 0 301 -2
335 -19z m-143 -276 c19 -18 25 -35 25 -70 l0 -45 -220 0 -220 0 0 45 c0 35 6
52 25 70 24 25 27 25 195 25 168 0 171 0 195 -25z m236 -188 c51 -33 70 -79
67 -157 l-3 -65 -495 0 -495 0 -3 65 c-3 78 16 124 67 157 34 23 35 23 431 23
396 0 397 0 431 -23z m67 -324 l-3 -58 -495 0 -495 0 -3 58 -3 57 501 0 501 0
-3 -57z m-878 -148 l0 -45 -60 0 -60 0 0 38 c0 21 3 42 7 45 3 4 30 7 60 7
l53 0 0 -45z m878 -2 l3 -43 -60 0 -61 0 0 45 0 46 58 -3 57 -3 3 -42z"/>
<path d="M85 771 c-28 -12 -62 -50 -74 -84 -14 -36 -14 -292 -1 -318 13 -24
62 -25 81 -2 12 14 15 -8 19 -157 5 -173 5 -173 31 -193 33 -24 78 -13 94 21
11 25 25 29 25 8 0 -18 19 -33 52 -41 21 -5 33 -1 52 19 26 25 26 26 26 192 0
161 1 167 18 151 25 -23 69 -22 82 2 5 11 10 81 10 156 0 148 -8 182 -54 225
-27 24 -32 25 -184 27 -86 1 -166 -1 -177 -6z"/>
</g>
</svg> -->


</svg>
