<svg>

<symbol id="logo" viewBox="0 0 160 40" fill="none" xmlns="http://www.w3.org/2000/svg">
  <path d="M21.2301 17.2475C21.2301 15.6493 20.944 14.4579 20.3719 13.6733C19.7997 12.8597 19.077 12.3075 18.2037 12.017C17.3605 11.7264 16.5324 11.5957 15.7193 11.6247L12.7832 11.6683C12.1508 11.6683 11.6088 11.7555 11.1571 11.9298C10.7054 12.0751 10.3591 12.4238 10.1182 12.9759C9.87724 13.4989 9.75682 14.3271 9.75682 15.4604V21.5626L12.467 21.4754C15.4182 21.3882 17.7972 21.5771 19.604 22.0421C21.4409 22.507 22.8412 23.1753 23.8048 24.0471C24.7986 24.8898 25.461 25.8632 25.7923 26.9674C26.1537 28.0717 26.3344 29.2339 26.3344 30.4544C26.3344 32.3722 25.8526 33.9995 24.8889 35.3362C23.9554 36.6438 22.6605 37.6317 21.0043 38.3001C19.348 38.9685 17.4659 39.3026 15.358 39.3026H0V36.4259C0.692616 36.3968 1.26477 36.3096 1.71648 36.1643C2.19829 36.019 2.55966 35.6849 2.80057 35.1618C3.07159 34.6388 3.2071 33.7961 3.2071 32.6338V15.9398C3.2071 15.1553 3.22216 14.3997 3.25227 13.6733C3.3125 12.9469 3.35767 12.3947 3.38778 12.017C2.90597 12.046 2.30369 12.0751 1.58097 12.1042C0.858238 12.1042 0.331253 12.1187 0 12.1477V8.79152H23.9403L24.1662 17.2475H21.2301ZM9.75682 32.3722C9.75682 33.1568 9.74173 33.8978 9.71165 34.5952C9.68156 35.2926 9.63639 35.8302 9.57613 36.2079C10.1182 36.2079 10.6301 36.2079 11.1119 36.2079C11.5937 36.2079 12.0756 36.2079 12.5574 36.2079C13.0392 36.1789 13.506 36.1643 13.9577 36.1643C15.7946 36.0772 17.1347 35.496 17.9778 34.4208C18.821 33.3457 19.2426 31.9654 19.2426 30.28C19.2426 28.7691 18.9565 27.6067 18.3844 26.7931C17.8122 25.9795 17.0744 25.4128 16.171 25.0932C15.2977 24.7735 14.3793 24.6137 13.4156 24.6137C12.6628 24.6137 12.0153 24.6137 11.4733 24.6137C10.9312 24.5847 10.3591 24.5991 9.75682 24.6573V32.3722ZM42.0145 39.3026C41.9543 38.8958 41.9091 38.5616 41.879 38.3001C41.879 38.0095 41.864 37.6753 41.8338 37.2976C40.81 38.2855 39.7259 38.9829 38.5815 39.3898C37.4373 39.7966 36.2778 40 35.1034 40C33.1762 40 31.6704 39.4479 30.5864 38.3437C29.5023 37.2395 28.9602 35.8592 28.9602 34.2029C28.9602 32.8081 29.3216 31.6167 30.0443 30.6287C30.7972 29.6408 31.7759 28.8417 32.9804 28.2314C34.2151 27.5922 35.5702 27.1127 37.0457 26.7931C38.5514 26.4444 40.0571 26.241 41.5628 26.1828V23.9163C41.5628 23.1608 41.4574 22.4779 41.2466 21.8677C41.0659 21.2575 40.7347 20.778 40.2528 20.4293C39.8011 20.0806 39.1537 19.9208 38.3105 19.9499C37.7384 19.9789 37.1812 20.0952 36.6392 20.2986C36.0971 20.5019 35.6304 20.7926 35.2389 21.1703C35.4798 21.4318 35.6304 21.7224 35.6906 22.0421C35.7509 22.3326 35.781 22.5941 35.781 22.8266C35.781 23.4078 35.5401 24.018 35.0582 24.6573C34.5764 25.2675 33.8085 25.5581 32.7545 25.529C31.8511 25.5 31.1586 25.1949 30.6767 24.6137C30.1949 24.0325 29.954 23.3497 29.954 22.5651C29.954 21.4028 30.3756 20.4003 31.2187 19.5576C32.0921 18.6858 33.2514 18.0175 34.6969 17.5526C36.1423 17.0585 37.7384 16.8116 39.4849 16.8116C42.135 16.8116 44.1827 17.4799 45.6281 18.8166C47.1037 20.1242 47.8415 22.231 47.8415 25.1367C47.8415 26.1247 47.8415 26.9674 47.8415 27.6648C47.8415 28.3622 47.8265 29.0596 47.7963 29.757C47.7963 30.4544 47.7963 31.2971 47.7963 32.2851C47.7963 32.6919 47.7813 33.273 47.7511 34.0286C47.721 34.755 47.6759 35.4524 47.6156 36.1207C48.1276 36.0626 48.6696 36.0336 49.2417 36.0336C49.814 36.0045 50.2506 35.99 50.5517 35.99V39.3026H42.0145ZM41.5176 29.2775C40.6744 29.3647 39.8765 29.51 39.1236 29.7134C38.3708 29.9168 37.7083 30.1929 37.1361 30.5416C36.594 30.8903 36.1574 31.3116 35.8261 31.8056C35.525 32.2996 35.3744 32.8517 35.3744 33.4619C35.4046 34.2755 35.6756 34.8567 36.1875 35.2054C36.6994 35.5541 37.2867 35.7285 37.9491 35.7285C38.6418 35.7285 39.2892 35.5831 39.8915 35.2926C40.4938 35.002 41.0358 34.6242 41.5176 34.1593C41.5176 33.8688 41.5176 33.5927 41.5176 33.3312C41.5176 33.0406 41.5176 32.75 41.5176 32.4594C41.5176 31.9364 41.5176 31.4133 41.5176 30.8903C41.5176 30.3382 41.5176 29.8006 41.5176 29.2775ZM64.8894 20.3421C64.0763 20.3421 63.4741 20.5019 63.0826 20.8216C62.7212 21.1413 62.4804 21.5916 62.3599 22.1728C62.2695 22.754 62.2244 23.4368 62.2244 24.2214V32.2851C62.2244 32.6919 62.2094 33.273 62.1792 34.0286C62.1491 34.755 62.1039 35.4524 62.0437 36.1207C62.5256 36.0626 63.0525 36.0336 63.6246 36.0336C64.2269 36.0045 64.6786 35.99 64.9798 35.99V39.3026H53.1451V36.4694C53.9883 36.4694 54.5906 36.3096 54.9519 35.99C55.3133 35.6703 55.5391 35.22 55.6295 34.6388C55.75 34.0286 55.8102 33.3457 55.8102 32.5902V24.5265C55.8102 24.1197 55.8252 23.5386 55.8553 22.783C55.8855 22.0275 55.9307 21.3301 55.9908 20.6908C55.5091 20.7199 54.9821 20.749 54.4099 20.778C53.8377 20.807 53.386 20.8216 53.0548 20.8216V17.509H64.8894V20.3421ZM71.5746 21.1703L73.7428 23.3497L60.7789 35.3798L58.5656 33.1568L71.5746 21.1703ZM79.5246 20.3421C78.7116 20.3421 78.1094 20.5019 77.7178 20.8216C77.3565 21.1413 77.1156 21.5916 76.9951 22.1728C76.9048 22.754 76.8596 23.4368 76.8596 24.2214V32.2851C76.8596 32.6919 76.8446 33.273 76.8144 34.0286C76.7843 34.755 76.7392 35.4524 76.6789 36.1207C77.1608 36.0626 77.6877 36.0336 78.2599 36.0336C78.8622 36.0045 79.3139 35.99 79.615 35.99V39.3026H67.7803V36.4694C68.6236 36.4694 69.2258 36.3096 69.5871 35.99C69.9485 35.6703 70.1744 35.22 70.2647 34.6388C70.3852 34.0286 70.4454 33.3457 70.4454 32.5902V24.5265C70.4454 24.1197 70.4605 23.5386 70.4905 22.783C70.5207 22.0275 70.5659 21.3301 70.6261 20.6908C70.1443 20.7199 69.6173 20.749 69.0451 20.778C68.473 20.807 68.0213 20.8216 67.69 20.8216V17.509H79.5246V20.3421ZM82.1537 39.3026V36.4694C82.9969 36.4694 83.5992 36.3096 83.9606 35.99C84.352 35.6703 84.5929 35.22 84.6833 34.6388C84.8037 34.0286 84.864 33.3457 84.864 32.5902V24.5265C84.864 24.1197 84.8791 23.5386 84.9091 22.783C84.9392 22.0275 84.9844 21.3301 85.0446 20.6908C84.5629 20.7199 84.0358 20.749 83.4637 20.778C82.8915 20.807 82.4398 20.8216 82.1086 20.8216V17.509H93.9437V20.3421C93.0999 20.3421 92.4829 20.5019 92.0917 20.8216C91.7303 21.1413 91.5045 21.5916 91.4141 22.1728C91.3238 22.754 91.2786 23.4368 91.2786 24.2214V26.27H93.4468L96.6991 22.6523C97.0902 22.2454 97.4064 21.8967 97.6477 21.6062C97.9187 21.3156 98.1897 21.0541 98.4607 20.8216H96.0667V17.509H106.23V20.2986C105.176 20.4148 104.243 20.6618 103.429 21.0395C102.616 21.3882 101.908 21.8096 101.306 22.3036C100.734 22.7976 100.237 23.2771 99.8158 23.742L96.9249 26.8367C97.3766 27.0691 97.813 27.3887 98.2349 27.7956C98.6866 28.1733 99.2286 28.769 99.861 29.5826L102.887 33.4183C103.068 33.6217 103.294 33.8978 103.565 34.2465C103.866 34.5952 104.197 34.9439 104.559 35.2926C104.92 35.6123 105.311 35.8882 105.733 36.1207C106.154 36.3532 106.591 36.4694 107.043 36.4694V39.3026H101.849C100.885 39.3026 100.042 38.9829 99.319 38.3437C98.5962 37.6753 97.7678 36.731 96.8346 35.5105C96.2925 34.8131 95.7198 34.0721 95.1181 33.2876C94.5453 32.474 94.0033 31.7184 93.492 31.021C93.0096 30.2946 92.6184 29.728 92.3175 29.3211L91.2786 29.3647V32.2851C91.2786 32.6919 91.2633 33.273 91.2335 34.0286C91.2027 34.755 91.1576 35.4524 91.0979 36.1207C91.5795 36.0626 92.1061 36.0336 92.6789 36.0336C93.2508 36.0045 93.7025 35.99 94.034 35.99V39.3026H82.1537ZM122.078 39.3026C122.017 38.8958 121.972 38.5616 121.942 38.3001C121.942 38.0095 121.927 37.6753 121.897 37.2976C120.872 38.2855 119.788 38.9829 118.645 39.3898C117.5 39.7966 116.341 40 115.167 40C113.239 40 111.734 39.4479 110.65 38.3437C109.565 37.2395 109.023 35.8592 109.023 34.2029C109.023 32.8081 109.385 31.6167 110.107 30.6287C110.86 29.6408 111.838 28.8417 113.044 28.2314C114.278 27.5922 115.633 27.1127 117.109 26.7931C118.614 26.4444 120.12 26.241 121.626 26.1828V23.9163C121.626 23.1608 121.52 22.4779 121.31 21.8677C121.129 21.2575 120.798 20.778 120.316 20.4293C119.864 20.0806 119.217 19.9208 118.374 19.9499C117.801 19.9789 117.244 20.0952 116.702 20.2986C116.16 20.5019 115.693 20.7926 115.302 21.1703C115.542 21.4318 115.693 21.7224 115.754 22.0421C115.813 22.3326 115.844 22.5941 115.844 22.8266C115.844 23.4078 115.603 24.018 115.121 24.6573C114.639 25.2675 113.871 25.5581 112.818 25.529C111.914 25.5 111.221 25.1949 110.74 24.6137C110.257 24.0325 110.017 23.3497 110.017 22.5651C110.017 21.4028 110.438 20.4003 111.282 19.5576C112.155 18.6858 113.315 18.0175 114.76 17.5526C116.205 17.0585 117.801 16.8116 119.548 16.8116C122.198 16.8116 124.246 17.4799 125.691 18.8166C127.167 20.1242 127.905 22.231 127.905 25.1367C127.905 26.1247 127.905 26.9674 127.905 27.6648C127.905 28.3622 127.889 29.0596 127.859 29.757C127.859 30.4544 127.859 31.2971 127.859 32.2851C127.859 32.6919 127.844 33.273 127.814 34.0286C127.784 34.755 127.738 35.4524 127.679 36.1207C128.19 36.0626 128.732 36.0336 129.305 36.0336C129.877 36.0045 130.313 35.99 130.615 35.99V39.3026H122.078ZM121.581 29.2775C120.737 29.3647 119.939 29.51 119.187 29.7134C118.433 29.9168 117.771 30.1929 117.199 30.5416C116.657 30.8903 116.22 31.3116 115.889 31.8056C115.588 32.2996 115.438 32.8517 115.438 33.4619C115.467 34.2755 115.738 34.8567 116.251 35.2054C116.762 35.5541 117.349 35.7285 118.012 35.7285C118.704 35.7285 119.352 35.5831 119.955 35.2926C120.556 35.002 121.098 34.6242 121.581 34.1593C121.581 33.8688 121.581 33.5927 121.581 33.3312C121.581 33.0406 121.581 32.75 121.581 32.4594C121.581 31.9364 121.581 31.4133 121.581 30.8903C121.581 30.3382 121.581 29.8006 121.581 29.2775ZM136.37 39.9128C134.985 39.9128 133.84 39.5496 132.937 38.8232C132.033 38.0967 131.581 37.1523 131.581 35.99C131.581 35.0311 131.868 34.3046 132.44 33.8106C133.012 33.2876 133.765 33.026 134.698 33.026C135.662 33.026 136.34 33.273 136.731 33.767C137.153 34.261 137.363 34.7986 137.363 35.3798C137.363 35.7575 137.318 36.0481 137.228 36.2515C137.137 36.4258 137.033 36.5856 136.912 36.731C137.002 36.8181 137.153 36.8617 137.363 36.8617C138.176 36.8617 138.885 36.2079 139.486 34.9003C140.089 33.5927 140.586 31.7184 140.977 29.2775C141.369 26.8367 141.67 23.9017 141.88 20.4729L137.589 20.8216V17.509H159.768V20.3421C158.925 20.3421 158.308 20.5019 157.916 20.8216C157.555 21.1413 157.314 21.5916 157.193 22.1728C157.103 22.754 157.058 23.4368 157.058 24.2214V32.2851C157.058 32.6919 157.043 33.273 157.012 34.0286C156.983 34.755 156.937 35.4524 156.877 36.1207L159.813 35.99V39.3026H147.933V36.4694C148.777 36.4694 149.379 36.3096 149.74 35.99C150.132 35.6703 150.372 35.22 150.463 34.6388C150.584 34.0286 150.643 33.3457 150.643 32.5902V24.5265C150.643 24.1197 150.659 23.5822 150.689 22.9138C150.719 22.2164 150.764 21.5626 150.824 20.9524H147.436C146.714 20.9524 146.202 21.0686 145.901 21.3011C145.6 21.5336 145.419 22.013 145.358 22.7394C145.178 25.6452 144.847 28.1733 144.365 30.3236C143.913 32.474 143.311 34.261 142.558 35.6849C141.835 37.1087 140.947 38.1693 139.893 38.8667C138.869 39.5641 137.695 39.9128 136.37 39.9128Z" fill="#2F70D9"/>
  <path d="M50.1974 0.195803V2.91149H45.0981V12.642H41.5956V0.195803H50.1974ZM64.1102 6.40188C64.1102 7.36106 63.9897 8.23507 63.7486 9.02392C63.5132 9.80709 63.1427 10.4825 62.6369 11.05C62.1311 11.6176 61.4812 12.0546 60.6872 12.361C59.8932 12.6619 58.9432 12.8123 57.8376 12.8123C56.7554 12.8123 55.8173 12.6619 55.0232 12.361C54.2351 12.0546 53.5852 11.6204 53.0734 11.0586C52.5617 10.4911 52.1824 9.81285 51.9354 9.02392C51.6883 8.23507 51.5648 7.35531 51.5648 6.38488C51.5648 5.09086 51.7854 3.9671 52.2265 3.01365C52.6735 2.0545 53.3617 1.31386 54.291 0.791719C55.2202 0.263903 56.4084 0 57.8552 0C59.3256 0 60.5195 0.263903 61.4371 0.791719C62.3605 1.31953 63.0369 2.06301 63.4662 3.02216C63.8955 3.9813 64.1102 5.10786 64.1102 6.40188ZM55.2349 6.40188C55.2349 7.15106 55.3232 7.79519 55.4996 8.33436C55.6761 8.87354 55.9555 9.28779 56.3377 9.5773C56.72 9.86672 57.22 10.0114 57.8376 10.0114C58.4786 10.0114 58.9874 9.86672 59.3638 9.5773C59.7461 9.28779 60.0196 8.87354 60.1843 8.33436C60.3548 7.79519 60.4401 7.15106 60.4401 6.40188C60.4401 5.27811 60.246 4.38998 59.8579 3.7373C59.4697 3.08463 58.8021 2.75826 57.8552 2.75826C57.2259 2.75826 56.7171 2.90582 56.329 3.20092C55.9466 3.49609 55.6672 3.91601 55.4908 4.46085C55.3202 5.00569 55.2349 5.6527 55.2349 6.40188ZM72.1827 2.77528C71.771 2.77528 71.4034 2.86041 71.0799 3.03068C70.7564 3.19525 70.48 3.43646 70.2506 3.7543C70.0212 4.07214 69.8448 4.46085 69.7213 4.92061C69.6036 5.37462 69.5448 5.89112 69.5448 6.46996C69.5448 7.25323 69.6477 7.91157 69.8536 8.44499C70.0594 8.9785 70.3712 9.38151 70.7887 9.65393C71.2123 9.92635 71.7416 10.0625 72.3767 10.0625C72.9532 10.0625 73.506 9.98589 74.0354 9.83263C74.5706 9.67947 75.1087 9.49501 75.6499 9.27934V12.1227C75.0794 12.3667 74.4942 12.5427 73.8942 12.6506C73.3002 12.7584 72.6679 12.8123 71.9974 12.8123C70.5976 12.8123 69.4507 12.5455 68.5567 12.012C67.6686 11.4729 67.0128 10.7265 66.5893 9.77309C66.1717 8.81958 65.9629 7.7129 65.9629 6.45296C65.9629 5.51087 66.0982 4.64819 66.3687 3.86493C66.6452 3.08175 67.0481 2.40354 67.5774 1.83033C68.1068 1.25143 68.7596 0.805911 69.536 0.493756C70.3182 0.175935 71.2123 0.017025 72.218 0.017025C72.8415 0.017025 73.4973 0.0879678 74.1854 0.229853C74.8794 0.366063 75.5558 0.587408 76.2145 0.893879L75.147 3.54142C74.6765 3.32584 74.2001 3.14417 73.7178 2.99662C73.2355 2.84906 72.7237 2.77528 72.1827 2.77528ZM83.8635 12.642H80.3787V2.94554H77.229V0.195803H87.0042V2.94554H83.8635V12.642ZM88.8484 0.195803H92.0944V5.89113C92.0944 6.14646 92.0917 6.41609 92.0862 6.69984C92.0799 6.97793 92.0709 7.25323 92.0591 7.52565C92.0474 7.79807 92.0329 8.05628 92.0158 8.30028C91.9977 8.54437 91.9769 8.76004 91.9534 8.94729H92.0239L97.335 0.195803H101.332V12.642H98.0758V7.25323C98.0758 7.02047 98.0795 6.75659 98.0849 6.46151C98.0966 6.16634 98.1084 5.86271 98.1201 5.55053C98.1382 5.23845 98.1553 4.93761 98.1734 4.64819C98.1969 4.35868 98.2204 4.10614 98.2439 3.89047H98.1644L92.8532 12.642H88.8484V0.195803ZM115.183 12.642H111.68V7.56819H107.631V12.642H104.129V0.195803H107.631V4.8099H111.68V0.195803H115.183V12.642ZM117.98 0.195803H121.227V5.89113C121.227 6.14646 121.223 6.41609 121.218 6.69984C121.211 6.97793 121.202 7.25323 121.19 7.52565C121.179 7.79807 121.164 8.05628 121.147 8.30028C121.129 8.54437 121.108 8.76004 121.085 8.94729H121.155L126.466 0.195803H130.463V12.642H127.208V7.25323C127.208 7.02047 127.211 6.75659 127.216 6.46151C127.228 6.16634 127.24 5.86271 127.251 5.55053C127.269 5.23845 127.287 4.93761 127.305 4.64819C127.328 4.35868 127.352 4.10614 127.375 3.89047H127.296L121.985 12.642H117.98V0.195803ZM146.555 9.88372V16.5155H143.159V12.642H133.26V0.195803H136.763V9.88372H140.345V0.195803H143.847V9.88372H146.555ZM156.189 12.642L155.554 10.3094H151.363L150.71 12.642H146.882L151.09 0.144718H155.74L160 12.642H156.189ZM154.831 7.55119L154.275 5.50799C154.215 5.28666 154.131 4.97169 154.019 4.56302C153.907 4.14877 153.795 3.72309 153.683 3.28609C153.578 2.84339 153.495 2.48016 153.437 2.19639C153.383 2.48016 153.308 2.83203 153.207 3.252C153.113 3.66634 153.013 4.07781 152.907 4.48639C152.807 4.89507 152.719 5.23557 152.643 5.50799L152.087 7.55119H154.831Z" fill="#686868"/>
</symbol>


<symbol id="arrow-up" width="41" height="40" viewBox="0 0 41 40" fill="none" xmlns="http://www.w3.org/2000/svg">
  <path fill-rule="evenodd" clip-rule="evenodd" d="M2.75 20C2.75 24.6413 4.59374 29.0925 7.87563 32.3744C11.1575 35.6563 15.6087 37.5 20.25 37.5C24.8913 37.5 29.3425 35.6563 32.6244 32.3744C35.9063 29.0925 37.75 24.6413 37.75 20C37.75 15.3587 35.9063 10.9075 32.6244 7.62563C29.3425 4.34374 24.8913 2.5 20.25 2.5C15.6087 2.5 11.1575 4.34374 7.87563 7.62563C4.59374 10.9075 2.75 15.3587 2.75 20ZM40.25 20C40.25 25.3043 38.1429 30.3914 34.3921 34.1421C30.6414 37.8929 25.5543 40 20.25 40C14.9457 40 9.85859 37.8929 6.10786 34.1421C2.35714 30.3914 0.25 25.3043 0.25 20C0.25 14.6957 2.35714 9.60859 6.10786 5.85786C9.85859 2.10714 14.9457 0 20.25 0C25.5543 0 30.6414 2.10714 34.3921 5.85786C38.1429 9.60859 40.25 14.6957 40.25 20ZM21.5 28.75C21.5 29.0815 21.3683 29.3995 21.1339 29.6339C20.8995 29.8683 20.5815 30 20.25 30C19.9185 30 19.6005 29.8683 19.3661 29.6339C19.1317 29.3995 19 29.0815 19 28.75V14.2675L13.635 19.635C13.4003 19.8697 13.0819 20.0016 12.75 20.0016C12.4181 20.0016 12.0997 19.8697 11.865 19.635C11.6303 19.4003 11.4984 19.0819 11.4984 18.75C11.4984 18.4181 11.6303 18.0997 11.865 17.865L19.365 10.365C19.4811 10.2486 19.6191 10.1562 19.7709 10.0932C19.9228 10.0302 20.0856 9.99777 20.25 9.99777C20.4144 9.99777 20.5772 10.0302 20.7291 10.0932C20.8809 10.1562 21.0189 10.2486 21.135 10.365L28.635 17.865C28.8697 18.0997 29.0016 18.4181 29.0016 18.75C29.0016 19.0819 28.8697 19.4003 28.635 19.635C28.4003 19.8697 28.0819 20.0016 27.75 20.0016C27.4181 20.0016 27.0997 19.8697 26.865 19.635L21.5 14.2675V28.75Z" fill="white"/>
</symbol>

<symbol id="blue-line" width="101" height="9" viewBox="0 0 101 9" fill="none" xmlns="http://www.w3.org/2000/svg">
  <path d="M2 7.5L7.28063 2.60503C8.85183 1.14858 11.2916 1.18867 12.8141 2.69595L16.3676 6.21396C17.9264 7.75716 20.4372 7.75716 21.996 6.21396L25.4585 2.78604C27.0173 1.24284 29.5281 1.24284 31.0869 2.78604L34.5495 6.21396C36.1082 7.75716 38.619 7.75716 40.1778 6.21396L43.6404 2.78604C45.1991 1.24284 47.7099 1.24284 49.2687 2.78604L52.7313 6.21396C54.2901 7.75716 56.8008 7.75716 58.3596 6.21396L61.8222 2.78604C63.381 1.24284 65.8918 1.24284 67.4505 2.78604L70.9131 6.21396C72.4719 7.75715 74.9827 7.75716 76.5414 6.21396L80.004 2.78604C81.5628 1.24284 84.0736 1.24284 85.6324 2.78604L89.0977 6.21674C90.6554 7.75884 93.164 7.7601 94.7232 6.21956L99.5 1.5" stroke="#2F70D9" stroke-width="3" stroke-linecap="round"/>
</symbol>

<symbol id="blue-line-mobile" width="65" height="7" viewBox="0 0 65 7" fill="none" xmlns="http://www.w3.org/2000/svg">
  <path d="M2 5.16667L4.43468 3.16262C5.94926 1.91593 8.14443 1.95156 9.61775 3.24675L10.1087 3.67832C11.619 5.00605 13.8803 5.00605 15.3906 3.67831L15.7963 3.32168C17.3067 1.99395 19.5679 1.99395 21.0783 3.32168L21.484 3.67832C22.9943 5.00605 25.2556 5.00605 26.7659 3.67831L27.1716 3.32168C28.6819 1.99395 30.9432 1.99395 32.4536 3.32169L32.8592 3.67832C34.3696 5.00605 36.6309 5.00605 38.1412 3.67831L38.5469 3.32168C40.0572 1.99395 42.3185 1.99395 43.8289 3.32168L44.2345 3.67832C45.7449 5.00605 48.0062 5.00605 49.5165 3.67831L49.9222 3.32168C51.4325 1.99395 53.6938 1.99395 55.2042 3.32168L55.6125 3.68063C57.1217 5.00738 59.3809 5.00849 60.8915 3.68325L63 1.83333" stroke="#2F70D9" stroke-width="3" stroke-linecap="round"/>
</symbol>

<symbol id="burger-open" width="20" height="20" viewBox="0 0 20 20" fill="none" xmlns="http://www.w3.org/2000/svg">
  <path d="M0.833403 8.33236C0.612371 8.33236 0.400392 8.24456 0.244098 8.08826C0.0878048 7.93197 0 7.71999 0 7.49896V0.833403C0 0.612371 0.0878048 0.400392 0.244098 0.244098C0.400392 0.0878048 0.612371 0 0.833403 0H7.50063C7.72166 0 7.93364 0.0878048 8.08993 0.244098C8.24622 0.400392 8.33403 0.612371 8.33403 0.833403V7.49896C8.33403 7.71999 8.24622 7.93197 8.08993 8.08826C7.93364 8.24456 7.72166 8.33236 7.50063 8.33236H0.833403ZM12.501 8.33236C12.28 8.33236 12.068 8.24456 11.9117 8.08826C11.7554 7.93197 11.6676 7.71999 11.6676 7.49896V0.833403C11.6676 0.612371 11.7554 0.400392 11.9117 0.244098C12.068 0.0878048 12.28 0 12.501 0H19.1666C19.3876 0 19.5996 0.0878048 19.7559 0.244098C19.9122 0.400392 20 0.612371 20 0.833403V7.49896C20 7.71999 19.9122 7.93197 19.7559 8.08826C19.5996 8.24456 19.3876 8.33236 19.1666 8.33236H12.501ZM0.833403 20C0.612371 20 0.400392 19.9122 0.244098 19.7559C0.0878048 19.5996 0 19.3876 0 19.1666V12.4994C0 12.2783 0.0878048 12.0664 0.244098 11.9101C0.400392 11.7538 0.612371 11.666 0.833403 11.666H7.50063C7.72166 11.666 7.93364 11.7538 8.08993 11.9101C8.24622 12.0664 8.33403 12.2783 8.33403 12.4994V19.1666C8.33403 19.3876 8.24622 19.5996 8.08993 19.7559C7.93364 19.9122 7.72166 20 7.50063 20H0.833403ZM12.501 20C12.28 20 12.068 19.9122 11.9117 19.7559C11.7554 19.5996 11.6676 19.3876 11.6676 19.1666V12.4994C11.6676 12.2783 11.7554 12.0664 11.9117 11.9101C12.068 11.7538 12.28 11.666 12.501 11.666H19.1666C19.3876 11.666 19.5996 11.7538 19.7559 11.9101C19.9122 12.0664 20 12.2783 20 12.4994V19.1666C20 19.3876 19.9122 19.5996 19.7559 19.7559C19.5996 19.9122 19.3876 20 19.1666 20H12.501Z" fill="#2F70D9"/>
</symbol>

<symbol id="burger-close" width="20" height="20" viewBox="0 0 20 20" fill="none" xmlns="http://www.w3.org/2000/svg">
  <path d="M1.75 0L0 1.75L3.5 5.25L1.25 7.5H7.5V1.25L5.25 3.5L1.75 0ZM16.5 5.25L20 1.75L18.25 0L14.75 3.5L12.5 1.25V7.5H18.75L16.5 5.25V5.25ZM3.5 14.75L0 18.25L1.75 20L5.25 16.5L7.5 18.75V12.5H1.25L3.5 14.75ZM18.75 12.5H12.5V18.75L14.75 16.5L18.25 20L20 18.25L16.5 14.75L18.75 12.5Z" fill="#D95845"/>
</symbol>

<symbol id="grey-line" width="136" height="14" viewBox="0 0 136 14" fill="none" xmlns="http://www.w3.org/2000/svg">
  <path d="M3 10.3333L11.2605 3.95231C12.7388 2.81042 14.8105 2.84365 16.2513 4.03235L23.3636 9.89994C24.8416 11.1193 26.9766 11.1193 28.4546 9.89994L35.4848 4.10006C36.9628 2.88072 39.0978 2.88072 40.5758 4.10006L47.606 9.89994C49.084 11.1193 51.2191 11.1193 52.697 9.89994L59.7272 4.10006C61.2052 2.88072 63.3403 2.88072 64.8183 4.10006L71.8484 9.89994C73.3264 11.1193 75.4615 11.1193 76.9395 9.89994L83.9696 4.10006C85.4476 2.88072 87.5827 2.88072 89.0607 4.10006L96.0908 9.89994C97.5688 11.1193 99.7039 11.1193 101.182 9.89994L108.212 4.10006C109.69 2.88072 111.825 2.88072 113.303 4.10006L120.336 9.90203C121.813 11.1204 123.946 11.1215 125.424 9.90453L133 3.66667" stroke="#686868" stroke-width="5" stroke-linecap="round"/>
</symbol>

<symbol id="promo-line" width="41" height="4" viewBox="0 0 41 4" fill="none" xmlns="http://www.w3.org/2000/svg">
  <path d="M1 3L2.40158 1.91732C3.47473 1.08834 4.99351 1.12465 6.03953 1.98761V1.98761C7.0952 2.85854 8.63523 2.87093 9.69091 2V2C10.7466 1.12907 12.2716 1.12907 13.3273 2V2C14.3829 2.87093 15.908 2.87093 16.9636 2V2C18.0193 1.12907 19.5443 1.12907 20.6 2V2C21.6557 2.87093 23.1807 2.87093 24.2364 2V2C25.292 1.12907 26.8171 1.12907 27.8727 2V2C28.9284 2.87093 30.4534 2.87093 31.5091 2V2C32.5648 1.12907 34.0902 1.12944 35.1459 2.00037V2.00037C36.2013 2.87107 37.7261 2.87219 38.7824 2.00253L40 1" stroke="#2F70D9" stroke-width="2" stroke-linecap="round"/>
</svg>

<symbol id="viber" width="20" height="20" viewBox="0 0 20 20" fill="none" xmlns="http://www.w3.org/2000/svg">
  <path d="M14.2104 0.00436588C11.6738 0.033432 6.22031 0.429106 3.17006 3.08537C0.901138 5.21938 0.108942 8.37446 0.0160912 12.2759C-0.0609553 16.1632 -0.153806 23.4635 7.25945 25.4513V28.4788C7.25945 28.4788 7.21302 29.6902 8.05658 29.9387C9.09572 30.2509 9.6874 29.3189 10.6752 28.3175L12.5174 26.3401C17.5896 26.7405 21.4745 25.8179 21.922 25.681C22.9512 25.3687 28.7485 24.6655 29.6958 17.3643C30.6678 9.82402 29.2226 5.07312 26.6139 2.9241H26.5981C25.8109 2.23589 22.647 0.0474962 15.5785 0.0231182C15.5785 0.0231182 15.054 -0.010636 14.2104 0.00342826V0.00436588ZM14.2973 2.12432C15.0174 2.11963 15.455 2.14869 15.455 2.14869C21.438 2.16369 24.2936 3.87297 24.9673 4.44866C27.1641 6.23576 28.2961 10.5188 27.4674 16.8139C26.6801 22.9178 21.9783 23.3041 21.1081 23.5676C20.7376 23.6801 17.316 24.4808 13.0053 24.2174C13.0053 24.2174 9.79507 27.8947 8.79149 28.8417C8.63246 29.0076 8.44675 29.0564 8.32822 29.032C8.15832 28.9926 8.10696 28.7929 8.11684 28.5191L8.14746 23.4945C1.86027 21.8442 2.23068 15.6175 2.29785 12.365C2.3749 9.11236 3.01794 6.45141 4.93225 4.64931C7.50936 2.43748 12.14 2.13932 14.2954 2.12432H14.2973ZM14.7715 5.37597C14.7197 5.37547 14.6684 5.3847 14.6204 5.40313C14.5725 5.42155 14.5288 5.44881 14.492 5.48333C14.4552 5.51784 14.4259 5.55893 14.4059 5.60423C14.3859 5.64953 14.3755 5.69814 14.3754 5.74726C14.3754 5.95729 14.5552 6.12325 14.7715 6.12325C15.7509 6.10557 16.7242 6.27211 17.6355 6.61327C18.5467 6.95443 19.3778 7.46345 20.0808 8.11099C21.516 9.43397 22.2154 11.2117 22.242 13.536C22.242 13.7414 22.4169 13.912 22.6381 13.912V13.897C22.7424 13.8973 22.8426 13.8584 22.9168 13.7888C22.991 13.7193 23.0332 13.6247 23.0342 13.5257C23.0822 12.4317 22.8953 11.3398 22.4848 10.3164C22.0744 9.29306 21.4491 8.35961 20.6468 7.5728C19.0831 6.12231 17.1016 5.37503 14.7715 5.37503V5.37597ZM9.56492 6.23576C9.28532 6.19698 9.00017 6.25026 8.75692 6.38671H8.73617C8.17142 6.70095 7.66267 7.0981 7.22883 7.56342C6.86829 7.9591 6.67271 8.35946 6.62135 8.74482C6.59072 8.97453 6.61147 9.20425 6.68358 9.42365L6.70926 9.43865C7.11523 10.5713 7.64567 11.6608 8.29365 12.6866C9.12834 14.1276 10.1556 15.4604 11.3498 16.6517L11.3854 16.7005L11.4417 16.7399L11.4773 16.7792L11.5187 16.813C12.7784 17.9499 14.1858 18.9296 15.7069 19.728C17.4454 20.6263 18.5003 21.051 19.1335 21.2273V21.2367C19.3192 21.2901 19.4881 21.3145 19.658 21.3145C20.1976 21.277 20.7085 21.069 21.109 20.7238C21.597 20.3119 22.0108 19.827 22.3339 19.2883V19.2789C22.6371 18.737 22.5344 18.2241 22.0968 17.8772C21.2205 17.1501 20.2728 16.5042 19.2668 15.9485C18.5932 15.6016 17.9087 15.8116 17.6311 16.1632L17.0394 16.8711C16.7362 17.2227 16.185 17.174 16.185 17.174L16.1692 17.1834C12.059 16.1867 10.9626 12.2365 10.9626 12.2365C10.9626 12.2365 10.9113 11.6992 11.2915 11.4255L12.0324 10.8591C12.387 10.5854 12.6339 9.93653 12.2536 9.29614C11.6722 8.33991 10.9933 7.44017 10.2267 6.60987C10.0591 6.41412 9.82401 6.28094 9.56294 6.23388L9.56492 6.23576ZM15.455 7.34965C14.9305 7.34965 14.9305 8.10161 15.46 8.10161C16.1122 8.11166 16.7559 8.2436 17.3544 8.48991C17.9528 8.73622 18.4943 9.09206 18.9478 9.5371C19.3615 9.97029 19.6794 10.4779 19.8827 11.0298C20.0859 11.5818 20.1704 12.1668 20.1311 12.7503C20.133 12.8491 20.1754 12.9432 20.2495 13.0126C20.3235 13.082 20.4232 13.1211 20.5272 13.1216L20.5431 13.1413C20.6479 13.1406 20.7482 13.1007 20.8223 13.0304C20.8964 12.96 20.9384 12.8648 20.9391 12.7653C20.9747 11.2754 20.4867 10.0256 19.5296 9.02423C18.5675 8.02285 17.2251 7.46122 15.5113 7.34965H15.455ZM16.104 9.37115C15.5637 9.35614 15.5429 10.1231 16.0783 10.1381C17.3802 10.2019 18.0124 10.8263 18.0953 12.1109C18.0972 12.2084 18.1391 12.3013 18.2122 12.3698C18.2853 12.4384 18.3838 12.477 18.4865 12.4775H18.5023C18.5551 12.4753 18.607 12.4632 18.6548 12.4418C18.7026 12.4205 18.7455 12.3903 18.7809 12.353C18.8163 12.3157 18.8435 12.2721 18.861 12.2248C18.8785 12.1774 18.8858 12.1272 18.8826 12.0771C18.7898 10.4025 17.8277 9.45928 16.1198 9.37208H16.104V9.37115Z" fill="white"/>
</symbol>

<symbol id="whatsapp" width="20" height="20" viewBox="0 0 20 20" fill="none" xmlns="http://www.w3.org/2000/svg">
  <path d="M14.5125 11.985C14.2642 11.8608 13.0467 11.2625 12.82 11.1792C12.5933 11.0967 12.4283 11.0558 12.2625 11.3042C12.0975 11.5508 11.6233 12.1092 11.4792 12.2742C11.3342 12.44 11.19 12.46 10.9425 12.3367C10.695 12.2117 9.89667 11.9508 8.95083 11.1075C8.215 10.4508 7.7175 9.64 7.57333 9.39167C7.42917 9.14417 7.5575 9.01 7.68167 8.88667C7.79333 8.77584 7.92917 8.5975 8.05333 8.45334C8.1775 8.30834 8.21833 8.205 8.30083 8.03917C8.38417 7.87417 8.3425 7.73 8.28 7.60584C8.21833 7.48167 7.72333 6.2625 7.51667 5.76667C7.31583 5.28417 7.11167 5.35 6.96 5.34167C6.815 5.335 6.65 5.33334 6.485 5.33334C6.32 5.33334 6.05167 5.395 5.825 5.64334C5.5975 5.89084 4.95833 6.49 4.95833 7.70917C4.95833 8.9275 5.845 10.105 5.96917 10.2708C6.09333 10.4358 7.715 12.9375 10.1992 14.01C10.7908 14.265 11.2517 14.4175 11.6108 14.5308C12.2042 14.72 12.7442 14.6933 13.1708 14.6292C13.6458 14.5583 14.6358 14.03 14.8425 13.4517C15.0483 12.8733 15.0483 12.3775 14.9867 12.2742C14.925 12.1708 14.76 12.1092 14.5117 11.985H14.5125ZM9.99417 18.1542H9.99083C8.51536 18.1544 7.06698 17.7578 5.7975 17.0058L5.4975 16.8275L2.37917 17.6458L3.21167 14.6058L3.01583 14.2942C2.19095 12.9811 1.75441 11.4615 1.75667 9.91084C1.75833 5.36917 5.45333 1.67417 9.9975 1.67417C12.1975 1.67417 14.2658 2.5325 15.8208 4.08917C16.5878 4.85299 17.1957 5.76131 17.6094 6.76159C18.0231 7.76186 18.2343 8.83424 18.2308 9.91667C18.2292 14.4583 14.5342 18.1542 9.99417 18.1542ZM17.0042 2.90667C16.086 1.98244 14.9935 1.24962 13.7901 0.750671C12.5866 0.251723 11.2961 -0.00342739 9.99333 3.63038e-06C4.53167 3.63038e-06 0.085 4.44584 0.0833333 9.91C0.0808025 11.649 0.536979 13.3578 1.40583 14.8642L0 20L5.25333 18.6217C6.70656 19.4134 8.33508 19.8283 9.99 19.8283H9.99417C15.4558 19.8283 19.9025 15.3825 19.9042 9.9175C19.9082 8.61523 19.654 7.32509 19.1562 6.1217C18.6584 4.91831 17.927 3.82556 17.0042 2.90667Z" fill="white"/>
</symbol>

<!-- <symbol id="room-1" 
 width="170.000000pt" height="110.000000pt" viewBox="0 0 170.000000 110.000000"
 preserveAspectRatio="xMidYMid meet" xmlns="http://www.w3.org/2000/svg">

<g transform="translate(0.000000,110.000000) scale(0.100000,-0.100000)"
fill="#000000" stroke="none">
<path d="M184 1071 c-29 -18 -54 -63 -54 -98 0 -30 34 -84 61 -98 65 -34 148
-5 169 61 16 47 0 105 -37 133 -33 27 -97 27 -139 2z"/>
<path d="M785 1071 c-40 -24 -71 -60 -84 -94 -6 -16 -11 -102 -11 -197 0 -109
-4 -171 -11 -175 -6 -4 -24 -25 -40 -47 l-29 -41 0 -248 c0 -287 -7 -269 104
-269 85 0 106 18 106 90 l0 50 330 0 330 0 0 -50 c0 -72 21 -90 106 -90 111 0
104 -18 104 269 l0 248 -29 41 c-16 22 -34 43 -40 47 -7 4 -11 66 -11 175 0
180 -5 208 -48 254 -51 54 -63 56 -419 56 -303 0 -330 -2 -358 -19z m703 -40
c65 -33 72 -57 72 -241 0 -144 -2 -161 -16 -156 -9 3 -40 6 -70 6 l-54 0 0 46
c0 62 -29 107 -80 128 -62 25 -330 22 -386 -3 -47 -22 -74 -68 -74 -129 l0
-40 -70 -4 -70 -3 0 158 c0 183 8 207 75 238 36 17 70 19 338 19 273 0 301 -2
335 -19z m-143 -276 c19 -18 25 -35 25 -70 l0 -45 -220 0 -220 0 0 45 c0 35 6
52 25 70 24 25 27 25 195 25 168 0 171 0 195 -25z m236 -188 c51 -33 70 -79
67 -157 l-3 -65 -495 0 -495 0 -3 65 c-3 78 16 124 67 157 34 23 35 23 431 23
396 0 397 0 431 -23z m67 -324 l-3 -58 -495 0 -495 0 -3 58 -3 57 501 0 501 0
-3 -57z m-878 -148 l0 -45 -60 0 -60 0 0 38 c0 21 3 42 7 45 3 4 30 7 60 7
l53 0 0 -45z m878 -2 l3 -43 -60 0 -61 0 0 45 0 46 58 -3 57 -3 3 -42z"/>
<path d="M85 771 c-28 -12 -62 -50 -74 -84 -14 -36 -14 -292 -1 -318 13 -24
62 -25 81 -2 12 14 15 -8 19 -157 5 -173 5 -173 31 -193 33 -24 78 -13 94 21
11 25 25 29 25 8 0 -18 19 -33 52 -41 21 -5 33 -1 52 19 26 25 26 26 26 192 0
161 1 167 18 151 25 -23 69 -22 82 2 5 11 10 81 10 156 0 148 -8 182 -54 225
-27 24 -32 25 -184 27 -86 1 -166 -1 -177 -6z"/>
</g>
</svg> -->


</svg>
