<?xml version="1.0" standalone="no"?>
<svg version="1.0" xmlns="http://www.w3.org/2000/svg"
 width="170.000000pt" height="110.000000pt" viewBox="0 0 170.000000 110.000000"
 preserveAspectRatio="xMidYMid meet">

<g transform="translate(0.000000,110.000000) scale(0.100000,-0.100000)"
fill="#000000" stroke="none">
<path d="M184 1071 c-29 -18 -54 -63 -54 -98 0 -30 34 -84 61 -98 65 -34 148
-5 169 61 16 47 0 105 -37 133 -33 27 -97 27 -139 2z"/>
<path d="M785 1071 c-40 -24 -71 -60 -84 -94 -6 -16 -11 -102 -11 -197 0 -109
-4 -171 -11 -175 -6 -4 -24 -25 -40 -47 l-29 -41 0 -248 c0 -287 -7 -269 104
-269 85 0 106 18 106 90 l0 50 330 0 330 0 0 -50 c0 -72 21 -90 106 -90 111 0
104 -18 104 269 l0 248 -29 41 c-16 22 -34 43 -40 47 -7 4 -11 66 -11 175 0
180 -5 208 -48 254 -51 54 -63 56 -419 56 -303 0 -330 -2 -358 -19z m703 -40
c65 -33 72 -57 72 -241 0 -144 -2 -161 -16 -156 -9 3 -40 6 -70 6 l-54 0 0 46
c0 62 -29 107 -80 128 -62 25 -330 22 -386 -3 -47 -22 -74 -68 -74 -129 l0
-40 -70 -4 -70 -3 0 158 c0 183 8 207 75 238 36 17 70 19 338 19 273 0 301 -2
335 -19z m-143 -276 c19 -18 25 -35 25 -70 l0 -45 -220 0 -220 0 0 45 c0 35 6
52 25 70 24 25 27 25 195 25 168 0 171 0 195 -25z m236 -188 c51 -33 70 -79
67 -157 l-3 -65 -495 0 -495 0 -3 65 c-3 78 16 124 67 157 34 23 35 23 431 23
396 0 397 0 431 -23z m67 -324 l-3 -58 -495 0 -495 0 -3 58 -3 57 501 0 501 0
-3 -57z m-878 -148 l0 -45 -60 0 -60 0 0 38 c0 21 3 42 7 45 3 4 30 7 60 7
l53 0 0 -45z m878 -2 l3 -43 -60 0 -61 0 0 45 0 46 58 -3 57 -3 3 -42z"/>
<path d="M85 771 c-28 -12 -62 -50 -74 -84 -14 -36 -14 -292 -1 -318 13 -24
62 -25 81 -2 12 14 15 -8 19 -157 5 -173 5 -173 31 -193 33 -24 78 -13 94 21
11 25 25 29 25 8 0 -18 19 -33 52 -41 21 -5 33 -1 52 19 26 25 26 26 26 192 0
161 1 167 18 151 25 -23 69 -22 82 2 5 11 10 81 10 156 0 148 -8 182 -54 225
-27 24 -32 25 -184 27 -86 1 -166 -1 -177 -6z"/>
</g>
</svg>
